<svg width="200" height="200" viewBox="0 0 200 200" xmlns="http://www.w3.org/2000/svg">
  <!-- Background -->
  <rect width="200" height="200" fill="#f5f5f0"/>
  
  <!-- DNA helix structure -->
  <path d="M60 40 Q100 60 140 40 Q100 80 60 60 Q100 100 140 80 Q100 120 60 100 Q100 140 140 120 Q100 160 60 140" 
        stroke="#6b6b6b" stroke-width="2" fill="none" opacity="0.4"/>
  <path d="M60 60 Q100 40 140 60 Q100 100 60 80 Q100 120 140 100 Q100 160 60 140 Q100 180 140 160" 
        stroke="#6b6b6b" stroke-width="2" fill="none" opacity="0.4"/>
  
  <!-- Molecular nodes -->
  <circle cx="60" cy="50" r="4" fill="#9a9a9a"/>
  <circle cx="140" cy="50" r="4" fill="#9a9a9a"/>
  <circle cx="60" cy="90" r="4" fill="#9a9a9a"/>
  <circle cx="140" cy="90" r="4" fill="#9a9a9a"/>
  <circle cx="60" cy="130" r="4" fill="#9a9a9a"/>
  <circle cx="140" cy="130" r="4" fill="#9a9a9a"/>
  
  <!-- Central icon -->
  <circle cx="100" cy="100" r="25" fill="none" stroke="#6b6b6b" stroke-width="2" opacity="0.5"/>
  <text x="100" y="108" font-family="sans-serif" font-size="24" text-anchor="middle" fill="#6b6b6b">🧬</text>
</svg>